<svg xmlns="http://www.w3.org/2000/svg" viewBox="0 0 38.05 42.22"><defs><style>.cls-1{fill:none;stroke:#29211a;stroke-miterlimit:10;stroke-width:0.2px;}</style></defs><title>logo-2</title><g id="Layer_2" data-name="Layer 2"><g id="Layer_1-2" data-name="Layer 1"><path class="cls-1" d="M35.11,36.78a21,21,0,1,1,0-31.36c8,7.16-2.69,19.24-10.74,12.08a4.85,4.85,0,1,0,0,7.23C32.37,17.55,43.15,29.59,35.11,36.78Z"/><path class="cls-1" d="M34,35.49a19.28,19.28,0,1,1,0-28.77c6.33,5.62-2.12,15.11-8.44,9.48a6.58,6.58,0,1,0-4.39,11.49A6.53,6.53,0,0,0,25.49,26C31.81,20.38,40.27,29.84,34,35.49Z"/><path class="cls-1" d="M32.8,34.2A17.55,17.55,0,1,1,32.79,8c4.6,4.09-1.54,11-6.14,6.9a8.31,8.31,0,1,0,0,12.4C31.24,23.21,37.39,30.09,32.8,34.2Z"/><path class="cls-1" d="M31.65,32.9a15.8,15.8,0,1,1,0-23.6c2.87,2.56-1,6.87-3.84,4.31a10,10,0,1,0,0,15C30.67,26,34.52,30.34,31.65,32.9Z"/><path class="cls-1" d="M30.42,31.53a14,14,0,1,1,0-20.85A1,1,0,0,1,29,12.24,11.89,11.89,0,1,0,29,30,1,1,0,1,1,30.42,31.53Z"/></g></g></svg>